<svg width="27" height="27" viewBox="0 0 27 27" fill="none" xmlns="http://www.w3.org/2000/svg">
<circle cx="13.5" cy="13.5" r="12.5" fill="black" stroke="#36FFC0" stroke-width="1.3" stroke-miterlimit="2.61313"/>
<path fill-rule="evenodd" clip-rule="evenodd" d="M15.6552 7.89648H11.3449V11.3449L7.89661 11.3449V15.6552H11.3449V19.1034H15.6552V15.6552H19.1035V11.3449L15.6552 11.3449V7.89648Z" fill="black"/>
<path d="M11.3449 7.89648V7.24648H10.6949V7.89648H11.3449ZM15.6552 7.89648H16.3052V7.24648H15.6552V7.89648ZM11.3449 11.3449V11.9949H11.9949V11.3449H11.3449ZM7.89661 11.3449L7.89661 10.6949L7.24661 10.6949V11.3449H7.89661ZM7.89661 15.6552H7.24661V16.3052H7.89661V15.6552ZM11.3449 15.6552H11.9949V15.0052H11.3449V15.6552ZM11.3449 19.1034H10.6949V19.7534H11.3449V19.1034ZM15.6552 19.1034V19.7534H16.3052V19.1034H15.6552ZM15.6552 15.6552V15.0052H15.0052V15.6552H15.6552ZM19.1035 15.6552V16.3052H19.7535V15.6552H19.1035ZM19.1035 11.3449H19.7535V10.6949H19.1035V11.3449ZM15.6552 11.3449H15.0052V11.9949H15.6552V11.3449ZM11.3449 8.54648H15.6552V7.24648H11.3449V8.54648ZM11.9949 11.3449V7.89648H10.6949V11.3449H11.9949ZM7.89661 11.9949L11.3449 11.9949V10.6949L7.89661 10.6949L7.89661 11.9949ZM8.54661 15.6552V11.3449H7.24661V15.6552H8.54661ZM11.3449 15.0052H7.89661V16.3052H11.3449V15.0052ZM11.9949 19.1034V15.6552H10.6949V19.1034H11.9949ZM15.6552 18.4534H11.3449V19.7534H15.6552V18.4534ZM15.0052 15.6552V19.1034H16.3052V15.6552H15.0052ZM19.1035 15.0052H15.6552V16.3052H19.1035V15.0052ZM18.4535 11.3449V15.6552H19.7535V11.3449H18.4535ZM15.6552 11.9949H19.1035V10.6949L15.6552 10.6949V11.9949ZM15.0052 7.89648V11.3449H16.3052V7.89648H15.0052Z" fill="#36FFC0"/>
</svg>
