<svg width="638" height="536" viewBox="0 0 638 536" fill="none" xmlns="http://www.w3.org/2000/svg">
<g filter="url(#filter0_di_236_4508)">
<path d="M74.2837 26.7664L31.6455 57.8134C30.6116 58.5663 30.0001 59.7681 30.0001 61.0471V498C30.0001 500.209 31.8348 502 34.0439 502H603.956C606.165 502 608 500.209 608 498V30C608 27.7909 606.209 26 604 26H76.6382C75.7921 26 74.9677 26.2683 74.2837 26.7664Z" fill="url(#paint0_linear_236_4508)"/>
<path d="M32.2342 58.6218L74.8723 27.5748C75.3854 27.2012 76.0036 27 76.6382 27H604C605.657 27 607 28.3431 607 30V498C607 499.643 605.627 501 603.956 501H34.0439C32.3728 501 31.0001 499.643 31.0001 498V61.0471C31.0001 60.0878 31.4587 59.1865 32.2342 58.6218Z" stroke="#8F8F8F" stroke-width="2"/>
</g>
<defs>
<filter id="filter0_di_236_4508" x="6.10352e-05" y="0" width="638" height="536" filterUnits="userSpaceOnUse" color-interpolation-filters="sRGB">
<feFlood flood-opacity="0" result="BackgroundImageFix"/>
<feColorMatrix in="SourceAlpha" type="matrix" values="0 0 0 0 0 0 0 0 0 0 0 0 0 0 0 0 0 0 127 0" result="hardAlpha"/>
<feOffset dy="4"/>
<feGaussianBlur stdDeviation="15"/>
<feComposite in2="hardAlpha" operator="out"/>
<feColorMatrix type="matrix" values="0 0 0 0 0 0 0 0 0 0 0 0 0 0 0 0 0 0 1 0"/>
<feBlend mode="normal" in2="BackgroundImageFix" result="effect1_dropShadow_236_4508"/>
<feBlend mode="normal" in="SourceGraphic" in2="effect1_dropShadow_236_4508" result="shape"/>
<feColorMatrix in="SourceAlpha" type="matrix" values="0 0 0 0 0 0 0 0 0 0 0 0 0 0 0 0 0 0 127 0" result="hardAlpha"/>
<feOffset dy="6"/>
<feComposite in2="hardAlpha" operator="arithmetic" k2="-1" k3="1"/>
<feColorMatrix type="matrix" values="0 0 0 0 0.560784 0 0 0 0 0.560784 0 0 0 0 0.560784 0 0 0 1 0"/>
<feBlend mode="normal" in2="shape" result="effect2_innerShadow_236_4508"/>
</filter>
<linearGradient id="paint0_linear_236_4508" x1="319" y1="26" x2="319" y2="502" gradientUnits="userSpaceOnUse">
<stop stop-color="#161616"/>
<stop offset="1" stop-color="#1E1E1E"/>
</linearGradient>
</defs>
</svg>
