<svg width="24" height="24" viewBox="0 0 24 24" fill="none" xmlns="http://www.w3.org/2000/svg">
<path d="M12 1.99999C11.3334 1.66664 9.70005 0.899959 8.50005 0.499959C8.45349 0.48444 8.50005 1 8.35997 0.465077C7.20038 0.27165 5.98065 2.37856 5.50005 3.49996L6 7C5.5 6.66667 4 6.4 2 8C0 9.6 1.1667 12.3333 2.00005 13.5C1.16671 14 -0.0999543 15.6 1.50005 18C3.10005 20.4 5.83338 19.3333 7.00005 18.5L12 14C13.3334 15.3333 16.3 18.2 17.5 19C19 20 22 19 22.5 18.5C22.9 18.1 23 16.3333 23 15.5L22 13.5C22.1667 13.1667 22.6 12.1 23 10.5C23.5 8.5 21.5 8 21.5 7.5C21.5 7.1 19.5 7 18.5 7L18 3.5C17.5 2.66666 16.4 0.899986 16 0.499986C15.6 0.0999858 13.1667 1.33332 12 1.99999Z" fill="black"/>
<path d="M23.0213 13.311L23.2523 12.9533C23.6799 12.2958 23.9252 11.5364 23.9632 10.7528C24.0013 9.96926 23.8306 9.18966 23.4687 8.49378C23.1068 7.79789 22.5667 7.21069 21.9036 6.79227C21.2406 6.37384 20.4783 6.1392 19.6948 6.11235L18.9188 6.08617L19.0758 5.32704C19.1942 4.75658 19.1989 4.16833 19.0895 3.59606C18.9802 3.0238 18.7589 2.47878 18.4385 1.99232C18.1181 1.50586 17.7048 1.08753 17.2224 0.761352C16.7399 0.435176 16.1979 0.207578 15.6273 0.0916271C15.3294 0.0370075 15.0276 0.00636906 14.7248 7.02886e-06C13.8748 -0.0015196 13.0429 0.245667 12.3314 0.711151L11.9739 0.942381L11.6164 0.711151C10.6324 0.0788877 9.43853 -0.138338 8.29513 0.106856C7.15173 0.35205 6.15161 1.03977 5.5129 2.02C4.88097 2.99674 4.65858 4.18315 4.89383 5.32267L5.05078 6.08181L4.27476 6.10799C3.49132 6.13484 2.72906 6.36948 2.06597 6.7879C1.40289 7.20633 0.862776 7.79352 0.500895 8.48941C0.139015 9.1853 -0.0316451 9.9649 0.00637577 10.7485C0.0443967 11.532 0.289734 12.2914 0.717286 12.9489L0.948347 13.3067L0.717286 13.6644C0.283004 14.3316 0.0365084 15.1036 0.00375227 15.8992C-0.0290038 16.6947 0.153191 17.4844 0.531155 18.1851C0.909119 18.8857 1.46887 19.4714 2.15147 19.8805C2.83407 20.2896 3.61426 20.507 4.40991 20.5097C5.5812 20.5039 6.70231 20.0332 7.52706 19.2009L11.3025 15.4227V24H12.6104V15.4357L16.3859 19.214C17.1547 20.0099 18.1934 20.4892 19.2975 20.5574C20.4017 20.6256 21.4914 20.278 22.3523 19.5827C23.2132 18.8875 23.7829 17.895 23.9495 16.8006C24.1161 15.7062 23.8674 14.589 23.2523 13.6688L23.0213 13.311ZM11.102 13.7822L6.62026 18.2847C6.3425 18.5813 6.00881 18.82 5.63843 18.987C5.26805 19.154 4.8683 19.246 4.46223 19.2576H4.35324C3.74941 19.2528 3.15991 19.0729 2.6562 18.7397C2.15248 18.4064 1.75617 17.9341 1.5153 17.38C1.27443 16.8258 1.19934 16.2137 1.29912 15.6177C1.39891 15.0217 1.66929 14.4675 2.0775 14.0222L2.22573 13.8738L2.76632 13.311L2.21701 12.7613C1.62478 12.1916 1.28082 11.4113 1.25973 10.5895C1.23863 9.76768 1.54209 8.97068 2.10431 8.37131C2.66653 7.77194 3.44218 7.41851 4.26307 7.38766C5.08396 7.35681 5.88391 7.65103 6.48946 8.20651L6.63769 8.35485L11.102 12.8224C11.2266 12.951 11.2963 13.1231 11.2963 13.3023C11.2963 13.4815 11.2266 13.6536 11.102 13.7822ZM12.2573 11.3216L11.9739 11.3478H11.7036L11.4856 11.1558L7.0039 6.64462C6.69795 6.35844 6.45266 6.01358 6.28266 5.63057C6.11265 5.24756 6.02139 4.83423 6.01432 4.41519C6.00726 3.99615 6.08452 3.57997 6.24151 3.19144C6.3985 2.8029 6.63202 2.44996 6.92815 2.15361C7.22428 1.85726 7.57697 1.62358 7.96522 1.46647C8.35347 1.30936 8.76934 1.23204 9.18808 1.23911C9.60681 1.24619 10.0198 1.33751 10.4026 1.50764C10.7853 1.67778 11.1299 1.92324 11.4159 2.22942L11.9739 2.78786L12.5319 2.22942C13.1033 1.64203 13.8825 1.30292 14.7014 1.28526C15.5204 1.26759 16.3135 1.57278 16.9096 2.13499C17.5057 2.6972 17.8571 3.47138 17.888 4.29053C17.9189 5.10968 17.6268 5.90816 17.0747 6.51373L16.9308 6.66207L12.2573 11.3216ZM21.8485 18.2672C21.5694 18.5693 21.2328 18.8124 20.8585 18.9825C20.4841 19.1526 20.0796 19.2461 19.6687 19.2576H19.5641C18.7722 19.2589 18.0097 18.9577 17.4322 18.4156C17.3842 18.3676 17.3319 18.3196 17.2883 18.2716L12.8458 13.7997C12.7245 13.6703 12.6569 13.4994 12.6569 13.3219C12.6569 13.1445 12.7245 12.9736 12.8458 12.8442L17.3276 8.3374C17.6135 8.03122 17.9581 7.78575 18.3409 7.61562C18.7236 7.44549 19.1366 7.35417 19.5554 7.34709C19.9741 7.34002 20.39 7.41734 20.7782 7.57445C21.1665 7.73156 21.5191 7.96524 21.8153 8.26159C22.1114 8.55793 22.3449 8.91088 22.5019 9.29942C22.6589 9.68795 22.7362 10.1041 22.7291 10.5232C22.722 10.9422 22.6308 11.3555 22.4608 11.7385C22.2908 12.1216 22.0455 12.4664 21.7395 12.7526L21.1815 13.311L21.7395 13.8695C22.3376 14.4364 22.6871 15.2173 22.7116 16.0413C22.7361 16.8654 22.4336 17.6657 21.8703 18.2672H21.8485Z" fill="#36FFC0"/>
</svg>
