<svg width="36" height="36" viewBox="0 0 36 36" fill="none" xmlns="http://www.w3.org/2000/svg">
<g clip-path="url(#clip0_236_4722)">
<path d="M18.1808 29.8796C24.7416 29.8796 30.0603 24.561 30.0603 18.0001C30.0603 11.4392 24.7416 6.12061 18.1808 6.12061C11.6199 6.12061 6.30125 11.4392 6.30125 18.0001C6.30125 24.561 11.6199 29.8796 18.1808 29.8796Z" fill="black"/>
<path d="M8.99942 27.0007C7.21937 25.2207 6.00714 22.9527 5.51603 20.4837C5.02491 18.0147 5.27697 15.4555 6.24033 13.1298C7.20368 10.8041 8.83507 8.81621 10.9282 7.41763C13.0213 6.01906 15.4821 5.27257 17.9995 5.27257C20.5169 5.27257 22.9777 6.01906 25.0708 7.41763C27.1639 8.81621 28.7953 10.8041 29.7587 13.1298C30.722 15.4556 30.9741 18.0147 30.483 20.4837C29.9919 22.9527 28.7796 25.2207 26.9996 27.0007C24.6126 29.3877 21.3752 30.7287 17.9995 30.7287C14.6238 30.7287 11.3864 29.3877 8.99942 27.0007V27.0007ZM7.77541 13.8486C6.73826 16.3908 6.6828 19.2277 7.6198 21.8086C8.55679 24.3894 10.4194 26.53 12.8459 27.8147C15.2725 29.0994 18.0899 29.4365 20.751 28.7607C23.4122 28.0849 25.7273 26.4443 27.2469 24.1575C28.7664 21.8706 29.382 19.1007 28.974 16.3856C28.5661 13.6704 27.1637 11.2037 25.0392 9.46434C22.9148 7.72501 20.2198 6.83719 17.4775 6.97323C14.7352 7.10927 12.1413 8.25948 10.1994 10.2005C9.15486 11.2416 8.33049 12.4823 7.77541 13.8486ZM20.0995 21.3006L17.9995 19.2006L15.7615 21.4386C15.6024 21.5978 15.3865 21.6872 15.1615 21.6872C14.9364 21.6872 14.7206 21.5978 14.5615 21.4386C14.4023 21.2795 14.3129 21.0637 14.3129 20.8386C14.3129 20.6136 14.4023 20.3978 14.5615 20.2386L16.7995 18.0006L14.6995 15.9006C14.5403 15.7415 14.4509 15.5256 14.4509 15.3006C14.4509 15.0755 14.5403 14.8597 14.6995 14.7006C14.8586 14.5415 15.0744 14.4521 15.2995 14.4521C15.5245 14.4521 15.7404 14.5415 15.8995 14.7006L17.9995 16.8006L20.2369 14.5632C20.3961 14.404 20.6119 14.3147 20.8369 14.3147C21.062 14.3147 21.2778 14.4041 21.4369 14.5632C21.5961 14.7223 21.6855 14.9381 21.6855 15.1632C21.6855 15.3882 21.5961 15.6041 21.4369 15.7632L19.1995 18.0006L21.2995 20.1006C21.4587 20.2598 21.5481 20.4756 21.5481 20.7006C21.5481 20.9257 21.4587 21.1415 21.2995 21.3006C21.1404 21.4598 20.9246 21.5492 20.6995 21.5492C20.4745 21.5492 20.2587 21.4598 20.0995 21.3006Z" fill="white"/>
</g>
<defs>
<clipPath id="clip0_236_4722">
<rect width="36" height="36" fill="white"/>
</clipPath>
</defs>
</svg>
