<svg width="24" height="26" viewBox="0 0 24 26" fill="none" xmlns="http://www.w3.org/2000/svg">
<path d="M22.6115 2.0769C22.6054 1.94387 22.4734 1.85383 22.3474 1.89669L14.9193 4.42171L17.8038 6.60794L12.016 14.9037C11.9503 14.9978 11.819 15.0174 11.7287 14.9467L8.30544 12.2673C8.21612 12.1974 8.0866 12.2157 8.02012 12.3076L1 22.0117L3.87139 24.4039L8.74313 17.4443C8.80963 17.3493 8.94272 17.3306 9.03284 17.4036L12.4693 20.1862C12.5596 20.2592 12.6928 20.2404 12.7592 20.1451L20.6155 8.87589L23 10.5627L22.6115 2.0769Z" fill="black" stroke="#36FFC0" stroke-width="1.3" stroke-miterlimit="2.61313"/>
<path d="M6.34472 2.37529C6.34472 2.72047 6.28216 3.03545 6.15703 3.32022C6.0319 3.605 5.86578 3.85094 5.65867 4.05805C5.45156 4.26085 5.20994 4.41834 4.93379 4.53052C4.66196 4.6427 4.37718 4.6988 4.07946 4.6988C3.75154 4.6988 3.44951 4.6427 3.17336 4.53052C2.90153 4.41834 2.66422 4.26085 2.46142 4.05805C2.26294 3.85094 2.10761 3.605 1.99542 3.32022C1.88324 3.03545 1.82715 2.72047 1.82715 2.37529C1.82715 2.01716 1.88324 1.69355 1.99542 1.40446C2.10761 1.11106 2.26294 0.860799 2.46142 0.653689C2.66422 0.44658 2.90153 0.286933 3.17336 0.174748C3.44951 0.0582493 3.75154 0 4.07946 0C4.40739 0 4.70942 0.0582493 4.98557 0.174748C5.26603 0.286933 5.5055 0.44658 5.70398 0.653689C5.90677 0.860799 6.06426 1.11106 6.17645 1.40446C6.28863 1.69355 6.34472 2.01716 6.34472 2.37529ZM4.80435 2.37529C4.80435 2.15523 4.78493 1.97401 4.7461 1.83162C4.71158 1.68492 4.66196 1.56842 4.59724 1.48213C4.53252 1.39583 4.45485 1.33542 4.36424 1.30091C4.27794 1.26639 4.18302 1.24913 4.07946 1.24913C3.97591 1.24913 3.88098 1.26639 3.79469 1.30091C3.70839 1.33542 3.63504 1.39583 3.57463 1.48213C3.51423 1.56842 3.46677 1.68492 3.43225 1.83162C3.39773 1.97401 3.38047 2.15523 3.38047 2.37529C3.38047 2.5824 3.39773 2.75499 3.43225 2.89306C3.46677 3.03113 3.51423 3.14116 3.57463 3.22314C3.63504 3.30512 3.70839 3.36337 3.79469 3.39789C3.88098 3.43241 3.97591 3.44967 4.07946 3.44967C4.18302 3.44967 4.27794 3.43241 4.36424 3.39789C4.45485 3.36337 4.53252 3.30512 4.59724 3.22314C4.66196 3.14116 4.71158 3.03113 4.7461 2.89306C4.78493 2.75499 4.80435 2.5824 4.80435 2.37529ZM9.30898 0.388331C9.3737 0.314979 9.45352 0.2481 9.54845 0.187693C9.64337 0.122972 9.77498 0.0906107 9.94325 0.0906107H11.406L4.29952 9.23579C4.2348 9.31777 4.15282 9.38681 4.05358 9.4429C3.95865 9.49468 3.84215 9.52057 3.70408 9.52057H2.20253L9.30898 0.388331ZM11.7684 7.30708C11.7684 7.65226 11.7058 7.9694 11.5807 8.25849C11.4556 8.54327 11.2895 8.78921 11.0824 8.99632C10.8752 9.19911 10.6336 9.3566 10.3575 9.46879C10.0856 9.58097 9.80086 9.63706 9.50314 9.63706C9.17522 9.63706 8.87319 9.58097 8.59704 9.46879C8.32521 9.3566 8.0879 9.19911 7.8851 8.99632C7.68662 8.78921 7.53129 8.54327 7.4191 8.25849C7.30692 7.9694 7.25083 7.65226 7.25083 7.30708C7.25083 6.94896 7.30692 6.62535 7.4191 6.33626C7.53129 6.04285 7.68662 5.79259 7.8851 5.58548C8.0879 5.37838 8.32521 5.21873 8.59704 5.10654C8.87319 4.99005 9.17522 4.9318 9.50314 4.9318C9.83107 4.9318 10.1331 4.99005 10.4092 5.10654C10.6897 5.21873 10.9292 5.37838 11.1277 5.58548C11.3305 5.79259 11.4879 6.04285 11.6001 6.33626C11.7123 6.62535 11.7684 6.94896 11.7684 7.30708ZM10.228 7.30708C10.228 7.09134 10.2086 6.91228 10.1698 6.76989C10.1353 6.62319 10.0856 6.50669 10.0209 6.4204C9.9562 6.3341 9.87853 6.27369 9.78792 6.23917C9.70162 6.20466 9.6067 6.1874 9.50314 6.1874C9.39959 6.1874 9.30466 6.20466 9.21837 6.23917C9.13207 6.27369 9.05872 6.3341 8.99832 6.4204C8.93791 6.50669 8.89045 6.62319 8.85593 6.76989C8.82141 6.91228 8.80415 7.09134 8.80415 7.30708C8.80415 7.51419 8.82141 7.68678 8.85593 7.82486C8.89045 7.96293 8.93791 8.07296 8.99832 8.15494C9.05872 8.23692 9.13207 8.29517 9.21837 8.32969C9.30466 8.3642 9.39959 8.38146 9.50314 8.38146C9.6067 8.38146 9.70162 8.3642 9.78792 8.32969C9.87853 8.29517 9.9562 8.23692 10.0209 8.15494C10.0856 8.07296 10.1353 7.96293 10.1698 7.82486C10.2086 7.68678 10.228 7.51419 10.228 7.30708Z" fill="#36FFC0"/>
</svg>
