<svg width="54" height="59" viewBox="0 0 54 59" fill="none" xmlns="http://www.w3.org/2000/svg">
<g clip-path="url(#clip0_2381_17739)">
<path d="M0 0H54V45.5909L27 59L0 45.5909V0Z" fill="url(#paint0_linear_2381_17739)" stroke="url(#paint1_linear_2381_17739)"/>
<path opacity="0.8" d="M4.57617 0H49.4236V42.2386L26.9999 53.4688L4.57617 42.2386V0Z" fill="url(#paint2_linear_2381_17739)" fill-opacity="0.5" stroke="url(#paint3_linear_2381_17739)"/>
<g filter="url(#filter0_d_2381_17739)">
<path d="M21.3224 8.11404V9.44004H18.7124V16.79H17.0984V9.44004H14.4764V8.11404H21.3224ZM24.1631 16.79H22.5431V8.11404H24.1631V16.79ZM31.5906 8.11404V9.39804H27.7446V11.804H30.7746V13.046H27.7446V15.5H31.5906V16.79H26.1186V8.11404H31.5906ZM34.6538 13.4V16.79H33.0398V8.11404H35.6858C36.2778 8.11404 36.7838 8.17604 37.2038 8.30004C37.6278 8.42004 37.9738 8.59004 38.2418 8.81004C38.5138 9.03004 38.7118 9.29404 38.8358 9.60204C38.9638 9.90604 39.0278 10.242 39.0278 10.61C39.0278 10.902 38.9838 11.178 38.8958 11.438C38.8118 11.698 38.6878 11.934 38.5238 12.146C38.3638 12.358 38.1638 12.544 37.9238 12.704C37.6878 12.864 37.4178 12.992 37.1138 13.088C37.3178 13.204 37.4938 13.37 37.6418 13.586L39.8138 16.79H38.3618C38.2218 16.79 38.1018 16.762 38.0018 16.706C37.9058 16.65 37.8238 16.57 37.7558 16.466L35.9318 13.688C35.8638 13.584 35.7878 13.51 35.7038 13.466C35.6238 13.422 35.5038 13.4 35.3438 13.4H34.6538ZM34.6538 12.242H35.6618C35.9658 12.242 36.2298 12.204 36.4538 12.128C36.6818 12.052 36.8678 11.948 37.0118 11.816C37.1598 11.68 37.2698 11.52 37.3418 11.336C37.4138 11.152 37.4498 10.95 37.4498 10.73C37.4498 10.29 37.3038 9.95204 37.0118 9.71604C36.7238 9.48004 36.2818 9.36204 35.6858 9.36204H34.6538V12.242Z" fill="white"/>
</g>
<g filter="url(#filter1_d_2381_17739)">
<path d="M31.7707 27.1687C31.6827 27.3447 31.5787 27.4687 31.4587 27.5407C31.3467 27.6127 31.2107 27.6487 31.0507 27.6487C30.8907 27.6487 30.7107 27.5887 30.5107 27.4687C30.3107 27.3407 30.0747 27.2007 29.8027 27.0487C29.5307 26.8967 29.2107 26.7607 28.8427 26.6407C28.4827 26.5127 28.0547 26.4487 27.5587 26.4487C27.1107 26.4487 26.7187 26.5047 26.3827 26.6167C26.0547 26.7207 25.7747 26.8687 25.5427 27.0607C25.3187 27.2527 25.1507 27.4847 25.0387 27.7567C24.9267 28.0207 24.8707 28.3127 24.8707 28.6327C24.8707 29.0407 24.9827 29.3807 25.2067 29.6527C25.4387 29.9247 25.7427 30.1567 26.1187 30.3487C26.4947 30.5407 26.9227 30.7127 27.4027 30.8647C27.8827 31.0167 28.3707 31.1807 28.8667 31.3567C29.3707 31.5247 29.8627 31.7247 30.3427 31.9567C30.8227 32.1807 31.2507 32.4687 31.6267 32.8207C32.0027 33.1647 32.3027 33.5887 32.5267 34.0927C32.7587 34.5967 32.8747 35.2087 32.8747 35.9287C32.8747 36.7127 32.7387 37.4487 32.4667 38.1367C32.2027 38.8167 31.8107 39.4127 31.2907 39.9247C30.7787 40.4287 30.1507 40.8287 29.4067 41.1247C28.6627 41.4127 27.8107 41.5567 26.8507 41.5567C26.2987 41.5567 25.7547 41.5007 25.2187 41.3887C24.6827 41.2847 24.1667 41.1327 23.6707 40.9327C23.1827 40.7327 22.7227 40.4927 22.2907 40.2127C21.8667 39.9327 21.4867 39.6207 21.1507 39.2767L22.0867 37.7287C22.1747 37.6167 22.2787 37.5247 22.3987 37.4527C22.5267 37.3727 22.6667 37.3327 22.8187 37.3327C23.0187 37.3327 23.2347 37.4167 23.4667 37.5847C23.6987 37.7447 23.9707 37.9247 24.2827 38.1247C24.6027 38.3247 24.9747 38.5087 25.3987 38.6767C25.8307 38.8367 26.3467 38.9167 26.9467 38.9167C27.8667 38.9167 28.5787 38.7007 29.0827 38.2687C29.5867 37.8287 29.8387 37.2007 29.8387 36.3847C29.8387 35.9287 29.7227 35.5567 29.4907 35.2687C29.2667 34.9807 28.9667 34.7407 28.5907 34.5487C28.2147 34.3487 27.7867 34.1807 27.3067 34.0447C26.8267 33.9087 26.3387 33.7607 25.8427 33.6007C25.3467 33.4407 24.8587 33.2487 24.3787 33.0247C23.8987 32.8007 23.4707 32.5087 23.0947 32.1487C22.7187 31.7887 22.4147 31.3407 22.1827 30.8047C21.9587 30.2607 21.8467 29.5927 21.8467 28.8007C21.8467 28.1687 21.9707 27.5527 22.2187 26.9527C22.4747 26.3527 22.8427 25.8207 23.3227 25.3567C23.8107 24.8927 24.4067 24.5207 25.1107 24.2407C25.8147 23.9607 26.6187 23.8207 27.5227 23.8207C28.5467 23.8207 29.4907 23.9807 30.3547 24.3007C31.2187 24.6207 31.9547 25.0687 32.5627 25.6447L31.7707 27.1687Z" fill="white"/>
</g>
</g>
<defs>
<filter id="filter0_d_2381_17739" x="12.4766" y="7.11426" width="29.3374" height="12.6758" filterUnits="userSpaceOnUse" color-interpolation-filters="sRGB">
<feFlood flood-opacity="0" result="BackgroundImageFix"/>
<feColorMatrix in="SourceAlpha" type="matrix" values="0 0 0 0 0 0 0 0 0 0 0 0 0 0 0 0 0 0 127 0" result="hardAlpha"/>
<feOffset dy="1"/>
<feGaussianBlur stdDeviation="1"/>
<feComposite in2="hardAlpha" operator="out"/>
<feColorMatrix type="matrix" values="0 0 0 0 0 0 0 0 0 0 0 0 0 0 0 0 0 0 0.5 0"/>
<feBlend mode="normal" in2="BackgroundImageFix" result="effect1_dropShadow_2381_17739"/>
<feBlend mode="normal" in="SourceGraphic" in2="effect1_dropShadow_2381_17739" result="shape"/>
</filter>
<filter id="filter1_d_2381_17739" x="19.1509" y="22.8208" width="15.7236" height="21.7358" filterUnits="userSpaceOnUse" color-interpolation-filters="sRGB">
<feFlood flood-opacity="0" result="BackgroundImageFix"/>
<feColorMatrix in="SourceAlpha" type="matrix" values="0 0 0 0 0 0 0 0 0 0 0 0 0 0 0 0 0 0 127 0" result="hardAlpha"/>
<feOffset dy="1"/>
<feGaussianBlur stdDeviation="1"/>
<feComposite in2="hardAlpha" operator="out"/>
<feColorMatrix type="matrix" values="0 0 0 0 0 0 0 0 0 0 0 0 0 0 0 0 0 0 0.5 0"/>
<feBlend mode="normal" in2="BackgroundImageFix" result="effect1_dropShadow_2381_17739"/>
<feBlend mode="normal" in="SourceGraphic" in2="effect1_dropShadow_2381_17739" result="shape"/>
</filter>
<linearGradient id="paint0_linear_2381_17739" x1="25.0911" y1="0.535179" x2="29.878" y2="51.5115" gradientUnits="userSpaceOnUse">
<stop offset="0.358465" stop-color="#FBD97E"/>
<stop offset="0.586621" stop-color="#CEA457"/>
<stop offset="1" stop-color="#755C1E"/>
</linearGradient>
<linearGradient id="paint1_linear_2381_17739" x1="-4" y1="8" x2="27" y2="59" gradientUnits="userSpaceOnUse">
<stop stop-color="#AD3D00"/>
<stop offset="0.249368" stop-color="#E05101"/>
<stop offset="0.334293" stop-color="#E4631B"/>
<stop offset="0.421884" stop-color="#CF4A01"/>
<stop offset="1" stop-color="#88350B"/>
</linearGradient>
<linearGradient id="paint2_linear_2381_17739" x1="21.689" y1="-18.0048" x2="28.7084" y2="29.3851" gradientUnits="userSpaceOnUse">
<stop stop-color="#F4CD6A"/>
<stop offset="1" stop-color="#A67511"/>
</linearGradient>
<linearGradient id="paint3_linear_2381_17739" x1="26.9999" y1="0" x2="26.9999" y2="53.4688" gradientUnits="userSpaceOnUse">
<stop stop-color="#AD3D01"/>
<stop offset="0.9999" stop-color="#8D2711"/>
<stop offset="1" stop-color="#A83117" stop-opacity="0"/>
</linearGradient>
<clipPath id="clip0_2381_17739">
<rect width="54" height="59" fill="white"/>
</clipPath>
</defs>
</svg>
