<svg width="43" height="35" viewBox="0 0 43 35" fill="none" xmlns="http://www.w3.org/2000/svg">
<path d="M39.0265 13.2609C38.6912 11.0495 37.5718 9.03117 35.8713 7.57231C34.1708 6.11344 32.002 5.3107 29.7586 5.3098C29.0707 5.31003 28.385 5.38658 27.7142 5.53807C26.623 4.29982 25.1729 3.43021 23.5643 3.04951C21.9557 2.66882 20.2682 2.79586 18.7352 3.41307C17.9187 2.34876 16.8665 1.48696 15.6608 0.894914C14.455 0.302871 13.1284 -0.00339218 11.7843 2.83392e-05C9.45823 0.00864698 7.2302 0.935121 5.58744 2.57686C3.94467 4.21859 3.02085 6.442 3.01799 8.76089C3.01865 9.30814 3.07159 9.85408 3.17609 10.3913C2.10879 10.7923 1.21498 11.5515 0.648334 12.5383C0.0816884 13.5251 -0.122389 14.6779 0.0711894 15.7985C0.264767 16.919 0.843906 17.9373 1.70903 18.6783C2.57416 19.4193 3.67122 19.8367 4.8116 19.8587H8.15894C8.59932 21.0697 9.40244 22.1164 10.4595 22.8572C11.5166 23.5979 12.7765 23.9969 14.0686 24H37.5109C38.8337 23.9985 40.1116 23.5214 41.1099 22.6563C42.1082 21.7911 42.76 20.596 42.9456 19.2903C43.1312 17.9847 42.8381 16.6561 42.1202 15.5485C41.4023 14.4409 40.3077 13.6287 39.0374 13.2609H39.0265ZM9.63635 13.3044C9.56002 13.3804 9.4837 13.4674 9.41283 13.5489C9.34196 13.6304 9.28744 13.6794 9.23292 13.75C9.17841 13.8207 9.09663 13.9239 9.03121 14.0163C8.96579 14.1087 8.92218 14.1576 8.87311 14.2283C8.82405 14.2989 8.75317 14.4185 8.69866 14.5109C8.64414 14.6033 8.60053 14.6631 8.55691 14.7391C8.5133 14.8152 8.45878 14.9348 8.40972 15.0381C8.36065 15.1413 8.32794 15.2011 8.28978 15.2881C8.25162 15.375 8.21346 15.4946 8.17529 15.5978C8.13713 15.7011 8.10442 15.7717 8.07716 15.8641C8.0499 15.9565 8.02265 16.0761 7.98994 16.1794C7.95723 16.2826 7.93542 16.3641 7.91906 16.462C7.90271 16.5598 7.8809 16.6794 7.86455 16.788C7.84819 16.8967 7.83184 16.9837 7.82093 17.0815C7.81003 17.1794 7.82093 17.3044 7.82093 17.4131C7.82093 17.5217 7.82093 17.5924 7.82093 17.6902H4.81705C4.15274 17.6373 3.5309 17.3436 3.06904 16.8647C2.60719 16.3858 2.33734 15.7548 2.31049 15.091C2.28364 14.4271 2.50165 13.7765 2.92332 13.2621C3.345 12.7476 3.94111 12.405 4.59898 12.2989C4.76422 12.286 4.92434 12.2357 5.06716 12.1519C5.20998 12.068 5.33174 11.9528 5.42319 11.815C5.51465 11.6772 5.57338 11.5205 5.59493 11.3566C5.61649 11.1928 5.60029 11.0262 5.54757 10.8696C5.01763 9.33124 5.07787 7.65176 5.71667 6.15508C6.35547 4.6584 7.52759 3.45054 9.00694 2.76448C10.4863 2.07842 12.1681 1.96276 13.7279 2.4398C15.2878 2.91684 16.6152 3.9528 17.4541 5.34785C17.5995 5.58883 17.833 5.76424 18.1055 5.83721C18.3779 5.91018 18.6681 5.87503 18.9151 5.73915C19.9409 5.17225 21.1148 4.92804 22.2824 5.03862C23.4501 5.1492 24.5568 5.6094 25.4572 6.35872C25.2718 6.45654 25.0974 6.55437 24.912 6.66306L24.7485 6.76632L24.3777 7.01089L24.2033 7.13589L23.8489 7.40763L23.6963 7.53263C23.5327 7.6685 23.3746 7.8098 23.2274 7.95654C22.9017 7.91868 22.574 7.90053 22.2461 7.90219C20.887 7.89609 19.5486 8.23516 18.3573 8.88745C17.166 9.53973 16.161 10.4837 15.437 11.6304C14.9862 11.5285 14.5253 11.4775 14.0631 11.4783C13.8501 11.4784 13.6372 11.4893 13.4253 11.5109L13.1854 11.5489C13.06 11.5489 12.9292 11.5815 12.8038 11.6087L12.5312 11.6794C12.4222 11.7065 12.3131 11.7283 12.2041 11.7609L11.9206 11.8641L11.6262 11.9728C11.5281 12.0109 11.4354 12.0652 11.3427 12.1087L11.1029 12.25C11.0047 12.2989 10.9175 12.3587 10.8248 12.4185L10.5849 12.5652C10.4923 12.625 10.4105 12.6957 10.3233 12.7609L10.1052 12.9239C10.018 12.9946 9.94164 13.0707 9.85987 13.1413C9.77809 13.212 9.70177 13.2446 9.63635 13.3044ZM37.5 21.8261H14.0577C13.1143 21.8247 12.2001 21.4999 11.4685 20.9061C10.7369 20.3124 10.2325 19.4858 10.0398 18.5652C9.98566 18.2968 9.95827 18.0238 9.958 17.75C9.95944 16.6665 10.3918 15.6278 11.1604 14.8617C11.9289 14.0955 12.9708 13.6645 14.0577 13.6631C14.5694 13.6638 15.0764 13.7615 15.5514 13.9511C15.8084 14.0522 16.0942 14.0524 16.3513 13.9515C16.6083 13.8506 16.8174 13.6562 16.9362 13.4076C17.4125 12.4069 18.1649 11.5621 19.1052 10.9722C20.0456 10.3822 21.135 10.0714 22.2461 10.0761C22.6416 10.0784 23.0359 10.1184 23.4237 10.1957C23.6075 10.231 23.7974 10.2186 23.975 10.1596C24.1526 10.1005 24.3119 9.99693 24.4377 9.85871C25.3065 8.89716 26.4197 8.18739 27.6597 7.80437C28.3423 7.59052 29.0539 7.48238 29.7695 7.48372C31.601 7.48736 33.3622 8.18705 34.6942 9.44021C36.0263 10.6934 36.8288 12.4057 36.9384 14.2283C36.9533 14.483 37.0575 14.7244 37.233 14.9102C37.4084 15.096 37.6438 15.2144 37.8979 15.2446C38.7312 15.3516 39.4927 15.77 40.0283 16.4153C40.5639 17.0606 40.8337 17.8846 40.7831 18.7207C40.7326 19.5567 40.3654 20.3424 39.7559 20.9189C39.1465 21.4954 38.3401 21.8197 37.5 21.8261Z" fill="white"/>
<path d="M8.97199 28.8159H7.42352L8.97199 26.9743C9.16022 26.7487 9.26162 26.4476 9.25387 26.1373C9.24613 25.8271 9.12988 25.533 8.9307 25.3198C8.73152 25.1065 8.46573 24.9917 8.19179 25.0005C7.91785 25.0092 7.65821 25.1409 7.46998 25.3665L4.28529 29.1784C4.14694 29.3427 4.05382 29.5491 4.01729 29.7724C3.98076 29.9956 4.0024 30.2261 4.07958 30.4356C4.15675 30.6452 4.28612 30.8247 4.45189 30.9524C4.61765 31.0801 4.81265 31.1503 5.01307 31.1545H6.7422L5.34341 33.0313C5.24771 33.147 5.17379 33.2835 5.12613 33.4326C5.07847 33.5816 5.05807 33.7401 5.06618 33.8984C5.07428 34.0567 5.11072 34.2114 5.17327 34.3533C5.23583 34.4951 5.32319 34.621 5.43006 34.7234C5.53692 34.8258 5.66106 34.9025 5.79491 34.9489C5.92876 34.9953 6.06954 35.0103 6.20869 34.9931C6.34784 34.9759 6.48244 34.9269 6.60433 34.8489C6.72621 34.7709 6.83282 34.6657 6.91769 34.5397L9.75655 30.7394C9.88323 30.5694 9.96447 30.362 9.99073 30.1416C10.017 29.9211 9.98719 29.6968 9.90482 29.4948C9.82245 29.2929 9.69093 29.1217 9.5257 29.0015C9.36047 28.8812 9.16839 28.8169 8.97199 28.8159Z" fill="white"/>
<path d="M18.8155 28.8159H17.0043L18.8155 26.9743C19.0357 26.7487 19.1543 26.4476 19.1452 26.1373C19.1362 25.8271 19.0002 25.533 18.7672 25.3198C18.5342 25.1065 18.2233 24.9917 17.9029 25.0005C17.5825 25.0092 17.2788 25.1409 17.0586 25.3665L13.3336 29.1784C13.1715 29.3431 13.0624 29.55 13.0199 29.7738C12.9774 29.9976 13.0032 30.2285 13.0943 30.4383C13.1853 30.648 13.3375 30.8275 13.5323 30.9548C13.7271 31.082 13.956 31.1514 14.1909 31.1545H16.1893L14.5531 33.0313C14.4412 33.147 14.3547 33.2835 14.299 33.4326C14.2433 33.5816 14.2194 33.7401 14.2289 33.8984C14.2384 34.0567 14.281 34.2114 14.3541 34.3533C14.4273 34.4951 14.5295 34.621 14.6545 34.7234C14.7795 34.8258 14.9247 34.9025 15.0813 34.9489C15.2378 34.9953 15.4025 35.0103 15.5652 34.9931C15.728 34.9759 15.8854 34.9269 16.028 34.8489C16.1706 34.7709 16.2953 34.6657 16.3945 34.5397L19.7151 30.7394C19.8623 30.5706 19.9571 30.3648 19.9885 30.1459C20.0199 29.927 19.9866 29.704 19.8925 29.5026C19.7983 29.3013 19.6472 29.13 19.4566 29.0084C19.266 28.8869 19.0437 28.8202 18.8155 28.8159Z" fill="white"/>
<path d="M27.9677 28.8159H26.4206L27.9677 26.9743C28.1558 26.7487 28.2571 26.4476 28.2494 26.1373C28.2416 25.8271 28.1255 25.533 27.9265 25.3198C27.7274 25.1065 27.4619 24.9917 27.1882 25.0005C26.9145 25.0092 26.655 25.1409 26.467 25.3665L23.285 29.1784C23.1465 29.3431 23.0533 29.55 23.017 29.7738C22.9807 29.9976 23.0028 30.2285 23.0805 30.4383C23.1583 30.648 23.2883 30.8275 23.4547 30.9548C23.6211 31.082 23.8166 31.1514 24.0173 31.1545H25.745L24.3474 33.0313C24.2517 33.147 24.1779 33.2835 24.1303 33.4326C24.0826 33.5816 24.0623 33.7401 24.0704 33.8984C24.0785 34.0567 24.1149 34.2114 24.1774 34.3533C24.2399 34.4951 24.3272 34.621 24.4339 34.7234C24.5407 34.8258 24.6647 34.9025 24.7985 34.9489C24.9322 34.9953 25.0729 35.0103 25.2119 34.9931C25.3509 34.9759 25.4854 34.9269 25.6072 34.8489C25.729 34.7709 25.8355 34.6657 25.9203 34.5397L28.7568 30.7394C28.8836 30.5691 28.9649 30.3611 28.9909 30.1401C29.017 29.9192 28.9867 29.6943 28.9038 29.4922C28.8209 29.29 28.6887 29.1189 28.5228 28.9991C28.357 28.8793 28.1644 28.8158 27.9677 28.8159Z" fill="white"/>
<path d="M36.9505 28.8159H35.4088L36.9505 26.9743C37.138 26.7487 37.2389 26.4476 37.2312 26.1373C37.2235 25.8271 37.1078 25.533 36.9094 25.3198C36.7111 25.1065 36.4465 24.9917 36.1737 25.0005C35.9009 25.0092 35.6424 25.1409 35.455 25.3665L32.2841 29.1784C32.1463 29.3427 32.0536 29.5491 32.0172 29.7724C31.9808 29.9956 32.0024 30.2261 32.0792 30.4356C32.1561 30.6452 32.2849 30.8247 32.4499 30.9524C32.615 31.0801 32.8091 31.1503 33.0087 31.1545H34.7561L33.3633 33.0313C33.268 33.147 33.1944 33.2835 33.147 33.4326C33.0995 33.5816 33.0792 33.7401 33.0873 33.8984C33.0953 34.0567 33.1316 34.2114 33.1939 34.3533C33.2562 34.4951 33.3432 34.621 33.4496 34.7234C33.556 34.8258 33.6796 34.9025 33.8129 34.9489C33.9461 34.9953 34.0863 35.0103 34.2249 34.9931C34.3634 34.9759 34.4974 34.9269 34.6188 34.8489C34.7401 34.7709 34.8463 34.6657 34.9308 34.5397L37.7574 30.7394C37.885 30.5676 37.9663 30.3574 37.9916 30.1343C38.0168 29.9111 37.985 29.6844 37.8998 29.4814C37.8146 29.2783 37.6797 29.1076 37.5114 28.9895C37.343 28.8715 37.1483 28.8112 36.9505 28.8159Z" fill="white"/>
</svg>
