<svg width="43" height="43" viewBox="0 0 43 43" fill="none" xmlns="http://www.w3.org/2000/svg">
<path fill-rule="evenodd" clip-rule="evenodd" d="M21.25 10.3672C19.0975 10.3672 16.9934 11.0055 15.2038 12.2013C13.4141 13.3971 12.0192 15.0968 11.1955 17.0854C10.3718 19.074 10.1563 21.2622 10.5762 23.3732C10.9961 25.4843 12.0326 27.4235 13.5546 28.9455C15.0766 30.4675 17.0158 31.504 19.1268 31.9239C21.2379 32.3438 23.4261 32.1283 25.4147 31.3046C27.4033 30.4809 29.103 29.086 30.2988 27.2963C31.4946 25.5066 32.1329 23.4025 32.1329 21.2501V21.2498C32.1295 18.3646 30.9818 15.5986 28.9417 13.5584C26.9015 11.5183 24.1355 10.3706 21.2503 10.3672L21.25 10.6172V10.3672ZM19.553 12.7187C21.2403 12.3831 22.9893 12.5554 24.5787 13.2137C26.1682 13.8721 27.5267 14.987 28.4825 16.4175C29.4383 17.8479 29.9484 19.5295 29.9485 21.2499C29.9463 23.5562 29.0291 25.7675 27.3983 27.3984C25.7674 29.0292 23.5561 29.9464 21.2497 29.9486C19.5294 29.9485 17.8478 29.4384 16.4174 28.4826C14.9869 27.5268 13.872 26.1683 13.2136 24.5789C12.5553 22.9894 12.383 21.2404 12.7186 19.5531C13.0543 17.8658 13.8827 16.3158 15.0992 15.0993C16.3157 13.8828 17.8656 13.0544 19.553 12.7187Z" fill="white"/>
<path fill-rule="evenodd" clip-rule="evenodd" d="M21.2501 0C20.9018 0 20.5677 0.138364 20.3214 0.384654C20.0751 0.630944 19.9368 0.964985 19.9368 1.31329V5.83228C19.9368 6.18058 20.0751 6.51463 20.3214 6.76092C20.5677 7.00721 20.9018 7.14557 21.2501 7.14557C21.5984 7.14557 21.9324 7.00721 22.1787 6.76092C22.425 6.51463 22.5634 6.18058 22.5634 5.83228V1.31329C22.5634 0.964985 22.425 0.630944 22.1787 0.384654C21.9324 0.138364 21.5984 0 21.2501 0ZM7.15873 5.84473C6.81027 5.84473 6.47608 5.98315 6.22968 6.22955C5.98328 6.47596 5.84485 6.81015 5.84485 7.15861C5.84485 7.50707 5.98328 7.84126 6.22968 8.08766L9.41955 11.2775C9.66595 11.5239 10.0001 11.6624 10.3486 11.6624C10.6971 11.6624 11.0313 11.5239 11.2777 11.2775C11.5241 11.0311 11.6625 10.6969 11.6625 10.3485C11.6625 10 11.5241 9.66583 11.2777 9.41943L8.08779 6.22955C7.84139 5.98315 7.5072 5.84473 7.15873 5.84473ZM1.31329 19.9365C0.964985 19.9365 0.630944 20.0749 0.384654 20.3212C0.138364 20.5675 0 20.9015 0 21.2498C0 21.5981 0.138364 21.9322 0.384654 22.1785C0.630944 22.4247 0.964985 22.5631 1.31329 22.5631H5.83228C6.18058 22.5631 6.51463 22.4247 6.76092 22.1785C7.00721 21.9322 7.14557 21.5981 7.14557 21.2498C7.14557 20.9015 7.00721 20.5675 6.76092 20.3212C6.51463 20.0749 6.18058 19.9365 5.83228 19.9365H1.31329ZM10.3486 30.8374C10.0001 30.8374 9.66595 30.9758 9.41955 31.2222L6.22968 34.4121C6.10767 34.5341 6.01089 34.6789 5.94486 34.8384C5.87883 34.9978 5.84485 35.1686 5.84485 35.3412C5.84485 35.5137 5.87883 35.6845 5.94486 35.844C6.01089 36.0034 6.10767 36.1482 6.22968 36.2702C6.35168 36.3922 6.49652 36.489 6.65593 36.555C6.81534 36.6211 6.98619 36.655 7.15873 36.655C7.33127 36.655 7.50212 36.6211 7.66153 36.555C7.82094 36.489 7.96578 36.3922 8.08779 36.2702L11.2777 33.0803C11.5241 32.8339 11.6625 32.4997 11.6625 32.1513C11.6625 31.8028 11.5241 31.4686 11.2777 31.2222C11.0313 30.9758 10.6971 30.8374 10.3486 30.8374ZM21.2501 35.3545C20.9018 35.3545 20.5677 35.4929 20.3214 35.7391C20.0751 35.9854 19.9368 36.3195 19.9368 36.6678V41.1868C19.9368 41.5351 20.0751 41.8691 20.3214 42.1154C20.5677 42.3617 20.9018 42.5001 21.2501 42.5001C21.5984 42.5001 21.9324 42.3617 22.1787 42.1154C22.425 41.8691 22.5634 41.5351 22.5634 41.1868V36.6678C22.5634 36.3195 22.425 35.9854 22.1787 35.7391C21.9324 35.4929 21.5984 35.3545 21.2501 35.3545ZM32.1514 30.8374C31.8029 30.8374 31.4688 30.9758 31.2223 31.2222C30.9759 31.4686 30.8375 31.8028 30.8375 32.1513C30.8375 32.4997 30.9759 32.8339 31.2223 33.0803L34.4122 36.2702C34.5342 36.3922 34.6791 36.489 34.8385 36.555C34.9979 36.6211 35.1687 36.655 35.3413 36.655C35.5138 36.655 35.6847 36.6211 35.8441 36.555C36.0035 36.489 36.1483 36.3922 36.2703 36.2702C36.3923 36.1482 36.4891 36.0034 36.5551 35.844C36.6212 35.6845 36.6552 35.5137 36.6552 35.3412C36.6552 35.1686 36.6212 34.9978 36.5551 34.8384C36.4891 34.6789 36.3923 34.5341 36.2703 34.4121L33.0805 31.2222C32.8341 30.9758 32.4999 30.8374 32.1514 30.8374ZM36.6677 19.9365C36.3194 19.9365 35.9853 20.0749 35.739 20.3212C35.4927 20.5675 35.3544 20.9015 35.3544 21.2498C35.3544 21.5981 35.4927 21.9322 35.739 22.1785C35.9853 22.4247 36.3194 22.5631 36.6677 22.5631H41.1866C41.535 22.5631 41.869 22.4247 42.1153 22.1785C42.3616 21.9322 42.4999 21.5981 42.4999 21.2498C42.4999 20.9015 42.3616 20.5675 42.1153 20.3212C41.869 20.0749 41.535 19.9365 41.1866 19.9365H36.6677ZM35.3413 5.83936C35.1688 5.83936 34.9979 5.87334 34.8385 5.93937C34.6791 6.0054 34.5343 6.10218 34.4123 6.22418L31.2224 9.41405L31.2219 9.41458C31.0393 9.59822 30.9151 9.83174 30.8649 10.0858C30.8147 10.3398 30.8407 10.603 30.9396 10.8423C31.0386 11.0816 31.206 11.2863 31.421 11.4307C31.6061 11.555 31.8194 11.6298 32.0404 11.6489L32.051 11.6595L32.1552 11.6591C32.5027 11.6576 32.8355 11.5184 33.0807 11.272L33.081 11.2716L36.2704 8.08229C36.3924 7.96029 36.4892 7.81545 36.5552 7.65604C36.6212 7.49663 36.6552 7.32578 36.6552 7.15324C36.6552 6.9807 36.6212 6.80985 36.5552 6.65044C36.4892 6.49103 36.3924 6.34619 36.2704 6.22418C36.1484 6.10218 36.0035 6.0054 35.8441 5.93937C35.6847 5.87334 35.5139 5.83936 35.3413 5.83936Z" fill="white"/>
</svg>
