<svg width="45" height="34" viewBox="0 0 45 34" fill="none" xmlns="http://www.w3.org/2000/svg">
<path d="M37.4636 21.7044C38.3793 20.1062 38.8597 18.2958 38.8569 16.4539C38.8544 13.9989 38.0032 11.6202 36.4475 9.72102C34.8918 7.8218 32.7274 6.51882 30.3209 6.03286C27.9145 5.54691 25.414 5.90787 23.2433 7.05457C21.0725 8.20128 19.365 10.0632 18.4099 12.3249C16.94 11.5237 15.2923 11.1049 13.6182 11.1071C10.9437 11.1101 8.37968 12.1739 6.48854 14.065C4.59741 15.9561 3.53365 18.5202 3.53065 21.1947C3.5307 21.8644 3.59902 22.5325 3.73456 23.1884C2.49921 23.6161 1.45448 24.4662 0.784459 25.5887C0.11444 26.7113 -0.137865 28.0343 0.0720033 29.3246C0.281871 30.615 0.940444 31.7899 1.93167 32.6422C2.9229 33.4946 4.18316 33.9697 5.49039 33.9839H34.4787C35.939 33.9851 37.3573 33.495 38.5055 32.5926C39.6536 31.6901 40.4649 30.4278 40.8088 29.0085C41.1526 27.5892 41.0091 26.0954 40.4014 24.7676C39.7936 23.4397 38.7569 22.3548 37.4579 21.6874L37.4636 21.7044ZM28.2086 8.08254C30.4304 8.08404 32.5609 8.96691 34.1324 10.5374C35.704 12.1079 36.5883 14.2378 36.5913 16.4596C36.5959 18.0835 36.1232 19.6729 35.232 21.0304H35.1583C34.7646 20.993 34.3683 20.993 33.9746 21.0304C33.4214 19.119 32.26 17.44 30.6665 16.2482C29.073 15.0564 27.1343 14.4168 25.1444 14.4262C23.9397 14.4276 22.7468 14.6643 21.6327 15.1229C21.4572 14.8906 21.2646 14.6641 21.0663 14.4489L20.8964 14.2676C20.7303 14.0901 20.5585 13.9202 20.381 13.7579L20.2904 13.6672C20.869 12.0307 21.9417 10.6143 23.3601 9.61388C24.7786 8.61344 26.4728 8.07833 28.2086 8.08254ZM34.4787 31.7183H5.49039C4.64374 31.7153 3.83096 31.3855 3.22157 30.7977C2.61219 30.21 2.25326 29.4096 2.21965 28.5636C2.18604 27.7177 2.48036 26.8914 3.0412 26.2571C3.60205 25.6229 4.38611 25.2296 5.22985 25.1595C5.4017 25.1454 5.56808 25.0924 5.71632 25.0043C5.86456 24.9162 5.99074 24.7955 6.08524 24.6513C6.17975 24.5071 6.24009 24.3432 6.26166 24.1721C6.28323 24.0011 6.26546 23.8273 6.20972 23.6642C5.93357 22.8642 5.79194 22.024 5.79058 21.1777C5.79658 19.1066 6.62314 17.1222 8.08923 15.6593C9.55532 14.1964 11.5414 13.3742 13.6125 13.3727C15.3214 13.3611 16.9861 13.9146 18.3476 14.9473C19.1385 15.5495 19.809 16.295 20.3244 17.1449C20.4755 17.3961 20.718 17.5789 21.0011 17.6549C21.2842 17.731 21.5857 17.6943 21.8423 17.5527C22.8547 16.9967 23.9894 16.7008 25.1444 16.6918C26.7886 16.6814 28.3824 17.259 29.6381 18.3205C30.8938 19.382 31.7287 20.8574 31.9922 22.4804C32.0237 22.6861 32.1128 22.8788 32.2491 23.0361C32.3854 23.1934 32.5633 23.3091 32.7625 23.3696H32.8474C32.9181 23.3859 32.9902 23.3954 33.0627 23.398H33.142C33.2317 23.3972 33.3211 23.3858 33.4082 23.364C34.0863 23.1899 34.7974 23.1899 35.4755 23.364C36.4742 23.6171 37.3467 24.225 37.93 25.0742C38.5134 25.9234 38.7678 26.9559 38.6457 27.9789C38.5236 29.0019 38.0334 29.9455 37.2667 30.6337C36.4999 31.3218 35.5089 31.7073 34.4787 31.7183Z" fill="white"/>
<path d="M28.2142 5.72629C28.5147 5.72629 28.8028 5.60694 29.0152 5.3945C29.2277 5.18206 29.347 4.89393 29.347 4.59349V1.1328C29.347 0.83236 29.2277 0.544229 29.0152 0.331789C28.8028 0.119348 28.5147 0 28.2142 0C27.9138 0 27.6257 0.119348 27.4132 0.331789C27.2008 0.544229 27.0814 0.83236 27.0814 1.1328V4.61048C27.0859 4.90796 27.2072 5.19175 27.4192 5.40053C27.6311 5.60931 27.9167 5.72632 28.2142 5.72629Z" fill="white"/>
<path d="M19.0217 8.86961C19.239 9.05445 19.5181 9.15046 19.8032 9.13845C20.0883 9.12643 20.3583 9.00729 20.5594 8.80482C20.7604 8.60235 20.8776 8.33147 20.8876 8.04632C20.8976 7.76117 20.7996 7.48275 20.6133 7.26671L18.1551 4.80853C17.9425 4.59598 17.6542 4.47656 17.3536 4.47656C17.053 4.47656 16.7647 4.59598 16.5522 4.80853C16.3396 5.02109 16.2202 5.30939 16.2202 5.60999C16.2202 5.91059 16.3396 6.19888 16.5522 6.41144L19.0217 8.86961Z" fill="white"/>
<path d="M43.5523 15.3213H40.0746C39.7741 15.3213 39.486 15.4406 39.2736 15.6531C39.0611 15.8655 38.9418 16.1536 38.9418 16.4541C38.9418 16.7545 39.0611 17.0427 39.2736 17.2551C39.486 17.4675 39.7741 17.5869 40.0746 17.5869H43.5523C43.8527 17.5869 44.1408 17.4675 44.3533 17.2551C44.5657 17.0427 44.6851 16.7545 44.6851 16.4541C44.6851 16.1536 44.5657 15.8655 44.3533 15.6531C44.1408 15.4406 43.8527 15.3213 43.5523 15.3213Z" fill="white"/>
<path d="M36.6025 9.19812C36.9024 9.19686 37.1896 9.07668 37.4011 8.86395L39.8706 6.41144C40.0832 6.19888 40.2026 5.91059 40.2026 5.60999C40.2026 5.30939 40.0832 5.02109 39.8706 4.80853C39.658 4.59598 39.3697 4.47656 39.0691 4.47656C38.7685 4.47656 38.4802 4.59598 38.2677 4.80853L35.8095 7.26671C35.6521 7.42511 35.5449 7.62653 35.5016 7.84564C35.4583 8.06476 35.4807 8.29179 35.5661 8.49819C35.6514 8.7046 35.7959 8.88117 35.9813 9.0057C36.1667 9.13024 36.3848 9.19719 36.6081 9.19812H36.6025Z" fill="white"/>
</svg>
