<svg width="42" height="58" viewBox="0 0 42 58" fill="none" xmlns="http://www.w3.org/2000/svg">
<ellipse cx="19.5556" cy="50.1018" rx="6.37095" ry="1.19942" fill="black" fill-opacity="0.6"/>
<g clip-path="url(#clip0_511_3791)">
<g filter="url(#filter0_d_511_3791)">
<path fill-rule="evenodd" clip-rule="evenodd" d="M8.96367 7.0777C8.78922 6.31525 9.51819 5.65669 10.2591 5.90744L12.0206 6.50364L32.5667 13.4575C33.1044 13.6394 33.3829 14.232 33.18 14.7621L19.7122 49.9506C19.5356 50.4121 18.868 50.3651 18.7578 49.8834L9.28326 8.4745L8.96367 7.0777ZM16.8354 13.1401C16.4674 13.0155 16.1041 13.34 16.1865 13.7197L17.693 20.6634C17.73 20.8342 17.8536 20.9732 18.0188 21.0301L22.5005 22.573C22.7378 22.6548 22.999 22.5478 23.1109 22.323L25.862 16.7942C25.997 16.523 25.8616 16.195 25.5746 16.0978L16.8354 13.1401Z" fill="url(#paint0_linear_511_3791)"/>
<path fill-rule="evenodd" clip-rule="evenodd" d="M8.96367 7.0777C8.78922 6.31525 9.51819 5.65669 10.2591 5.90744L12.0206 6.50364L32.5667 13.4575C33.1044 13.6394 33.3829 14.232 33.18 14.7621L19.7122 49.9506C19.5356 50.4121 18.868 50.3651 18.7578 49.8834L9.28326 8.4745L8.96367 7.0777ZM16.8354 13.1401C16.4674 13.0155 16.1041 13.34 16.1865 13.7197L17.693 20.6634C17.73 20.8342 17.8536 20.9732 18.0188 21.0301L22.5005 22.573C22.7378 22.6548 22.999 22.5478 23.1109 22.323L25.862 16.7942C25.997 16.523 25.8616 16.195 25.5746 16.0978L16.8354 13.1401Z" stroke="#FDFDFD"/>
</g>
<path d="M21.4278 26.8774L11.7316 23.1763L14.4999 33L21.1891 35.208L21.4278 26.8774Z" fill="url(#paint1_linear_511_3791)" stroke="#FDFDFD"/>
<path d="M12.787 27.7461L21.4279 30.8388" stroke="#FDFDFD"/>
</g>
<defs>
<filter id="filter0_d_511_3791" x="-1.56299" y="-2.64746" width="45.3096" height="65.4194" filterUnits="userSpaceOnUse" color-interpolation-filters="sRGB">
<feFlood flood-opacity="0" result="BackgroundImageFix"/>
<feColorMatrix in="SourceAlpha" type="matrix" values="0 0 0 0 0 0 0 0 0 0 0 0 0 0 0 0 0 0 127 0" result="hardAlpha"/>
<feOffset dy="2"/>
<feGaussianBlur stdDeviation="5"/>
<feComposite in2="hardAlpha" operator="out"/>
<feColorMatrix type="matrix" values="0 0 0 0 0 0 0 0 0 0 0 0 0 0 0 0 0 0 1 0"/>
<feBlend mode="normal" in2="BackgroundImageFix" result="effect1_dropShadow_511_3791"/>
<feBlend mode="normal" in="SourceGraphic" in2="effect1_dropShadow_511_3791" result="shape"/>
</filter>
<linearGradient id="paint0_linear_511_3791" x1="18.9993" y1="5.33398" x2="27.4343" y2="47.8913" gradientUnits="userSpaceOnUse">
<stop stop-color="#F2BC3C"/>
<stop offset="1" stop-color="#F0741E"/>
</linearGradient>
<linearGradient id="paint1_linear_511_3791" x1="15.8316" y1="23.1763" x2="23.572" y2="49.4795" gradientUnits="userSpaceOnUse">
<stop stop-color="#F8C353"/>
<stop offset="1" stop-color="#F1A532"/>
</linearGradient>
<clipPath id="clip0_511_3791">
<rect width="42" height="58" fill="white"/>
</clipPath>
</defs>
</svg>
